<?xml version="1.0" standalone="no"?>
<!DOCTYPE svg PUBLIC "-//W3C//DTD SVG 20010904//EN"
 "http://www.w3.org/TR/2001/REC-SVG-20010904/DTD/svg10.dtd">
<svg version="1.0" xmlns="http://www.w3.org/2000/svg"
 width="260.000000pt" height="260.000000pt" viewBox="0 0 260.000000 260.000000"
 preserveAspectRatio="xMidYMid meet">
<metadata>
Created by potrace 1.11, written by Peter Selinger 2001-2013
</metadata>
<g transform="translate(0.000000,260.000000) scale(0.100000,-0.100000)"
fill="#000000" stroke="none">
<path d="M306 2589 c-62 -15 -153 -68 -197 -116 -22 -24 -55 -74 -72 -111
l-32 -67 0 -995 0 -995 32 -67 c44 -93 100 -151 191 -196 l76 -37 996 0 996 0
76 37 c91 45 147 103 191 196 l32 67 0 996 0 995 -37 76 c-45 91 -103 147
-196 191 l-67 32 -975 2 c-568 1 -991 -3 -1014 -8z m1185 -536 c24 -11 63 -28
86 -38 52 -22 76 -47 103 -107 43 -97 36 -246 -19 -405 -59 -172 -175 -321
-303 -389 -72 -39 -74 -39 -187 -39 l-113 0 6 -75 c12 -145 49 -225 119 -259
54 -26 107 -27 188 -1 122 38 234 146 354 342 66 107 83 128 102 128 28 0 12
-66 -42 -178 -135 -279 -300 -433 -515 -478 -249 -53 -411 58 -466 317 -20 93
-14 356 11 469 80 365 260 655 452 726 52 20 168 13 224 -13z"/>
<path d="M1425 1956 c-125 -56 -277 -352 -336 -657 -25 -132 -25 -139 6 -139
42 0 96 34 156 97 186 195 333 603 251 696 -18 20 -36 21 -77 3z"/>
</g>
</svg>
